# xmcd
#
# Track frame offsets: 
#        150
#        22392
#        34807
#        53942
#        69315
#        89027
#        101515
#        124437
#        139212
#        155920
#        173337
#        196665
#
# Disc length: 2916 seconds
#
# Revision: 1
# Processed by: cddbd v1.5.2PL0 Copyright (c) Steve Scherf et al.
# Submitted via: ExactAudioCopy v1.3
#
DISCID=ad0b620c
DTITLE=Preston Shannon - Goin' Back To Memphis
DYEAR=2006
DGENRE=Blues
TTITLE0=Might Be Your Husband
TTITLE1=The Fool's Way Out
TTITLE2=Be With Me Tonight
TTITLE3=The Way That I Love You
TTITLE4=Not Tonight, 'Cause Honey I Got The Blues
TTITLE5=G-Man
TTITLE6=Luck Ain't No Lady
TTITLE7=If Ten Is Gonna Kill Me
TTITLE8=Love's Gonna Get You
TTITLE9=It's My Life
TTITLE10=Goin' Back To Memphis
TTITLE11=No More War
EXTD=
EXTT0=
EXTT1=
EXTT2=
EXTT3=
EXTT4=
EXTT5=
EXTT6=
EXTT7=
EXTT8=
EXTT9=
EXTT10=
EXTT11=
PLAYORDER=
